<mxfile host="app.diagrams.net" modified="2022-01-07T14:02:11.270Z" agent="5.0 (Windows)" etag="goL5rJhz2voKITlUpOXf" version="16.2.1" type="github">
  <diagram id="0L0jh1a9rEEmlckZHjS9" name="Event signals">
    <mxGraphModel dx="723" dy="390" grid="1" gridSize="10" guides="1" tooltips="1" connect="1" arrows="1" fold="1" page="1" pageScale="1" pageWidth="827" pageHeight="1169" math="0" shadow="0">
      <root>
        <mxCell id="0" />
        <mxCell id="1" parent="0" />
        <mxCell id="Cb_uPX-rAHGO11qX08dp-21" value="Ship Controller" style="swimlane;fontStyle=1;childLayout=stackLayout;horizontal=1;startSize=26;fillColor=none;horizontalStack=0;resizeParent=1;resizeParentMax=0;resizeLast=0;collapsible=1;marginBottom=0;fontSize=14;" parent="1" vertex="1">
          <mxGeometry x="239.91000000000008" y="300" width="160" height="208" as="geometry" />
        </mxCell>
        <mxCell id="Cb_uPX-rAHGO11qX08dp-22" value="Received events:" style="text;strokeColor=#000000;fillColor=#A9CAFC;align=left;verticalAlign=top;spacingLeft=4;spacingRight=4;overflow=hidden;rotatable=0;points=[[0,0.5],[1,0.5]];portConstraint=eastwest;fontStyle=1" parent="Cb_uPX-rAHGO11qX08dp-21" vertex="1">
          <mxGeometry y="26" width="160" height="26" as="geometry" />
        </mxCell>
        <mxCell id="Cb_uPX-rAHGO11qX08dp-23" value="+ ship came to port" style="text;fillColor=#dae8fc;align=left;verticalAlign=top;spacingLeft=4;spacingRight=4;overflow=hidden;rotatable=0;points=[[0,0.5],[1,0.5]];portConstraint=eastwest;strokeColor=#000000;" parent="Cb_uPX-rAHGO11qX08dp-21" vertex="1">
          <mxGeometry y="52" width="160" height="26" as="geometry" />
        </mxCell>
        <mxCell id="Cb_uPX-rAHGO11qX08dp-24" value="+ ship ready to departure&#xa;   from dock x" style="text;fillColor=#dae8fc;align=left;verticalAlign=top;spacingLeft=4;spacingRight=4;overflow=hidden;rotatable=0;points=[[0,0.5],[1,0.5]];portConstraint=eastwest;strokeColor=#000000;" parent="Cb_uPX-rAHGO11qX08dp-21" vertex="1">
          <mxGeometry y="78" width="160" height="52" as="geometry" />
        </mxCell>
        <mxCell id="Cb_uPX-rAHGO11qX08dp-25" value="Generated events:" style="text;fillColor=#FFD1A3;align=left;verticalAlign=top;spacingLeft=4;spacingRight=4;overflow=hidden;rotatable=0;points=[[0,0.5],[1,0.5]];portConstraint=eastwest;strokeColor=#000000;fontStyle=1" parent="Cb_uPX-rAHGO11qX08dp-21" vertex="1">
          <mxGeometry y="130" width="160" height="26" as="geometry" />
        </mxCell>
        <mxCell id="Cb_uPX-rAHGO11qX08dp-26" value="+ start loading/unloading&#xa;   ship in dock x" style="text;fillColor=#fff2cc;align=left;verticalAlign=top;spacingLeft=4;spacingRight=4;overflow=hidden;rotatable=0;points=[[0,0.5],[1,0.5]];portConstraint=eastwest;strokeColor=#000000;" parent="Cb_uPX-rAHGO11qX08dp-21" vertex="1">
          <mxGeometry y="156" width="160" height="52" as="geometry" />
        </mxCell>
        <mxCell id="Cb_uPX-rAHGO11qX08dp-27" value="Crane Controller" style="swimlane;fontStyle=1;childLayout=stackLayout;horizontal=1;startSize=26;fillColor=none;horizontalStack=0;resizeParent=1;resizeParentMax=0;resizeLast=0;collapsible=1;marginBottom=0;fontSize=14;" parent="1" vertex="1">
          <mxGeometry x="469.9100000000001" y="300" width="200" height="208" as="geometry" />
        </mxCell>
        <mxCell id="Cb_uPX-rAHGO11qX08dp-28" value="Received events:" style="text;fillColor=#A9CAFC;align=left;verticalAlign=top;spacingLeft=4;spacingRight=4;overflow=hidden;rotatable=0;points=[[0,0.5],[1,0.5]];portConstraint=eastwest;strokeColor=#000000;fontStyle=1" parent="Cb_uPX-rAHGO11qX08dp-27" vertex="1">
          <mxGeometry y="26" width="200" height="26" as="geometry" />
        </mxCell>
        <mxCell id="Cb_uPX-rAHGO11qX08dp-29" value="+ car is ready to be loaded" style="text;fillColor=#dae8fc;align=left;verticalAlign=top;spacingLeft=4;spacingRight=4;overflow=hidden;rotatable=0;points=[[0,0.5],[1,0.5]];portConstraint=eastwest;strokeColor=#000000;" parent="Cb_uPX-rAHGO11qX08dp-27" vertex="1">
          <mxGeometry y="52" width="200" height="26" as="geometry" />
        </mxCell>
        <mxCell id="Cb_uPX-rAHGO11qX08dp-30" value="+ ship ready to load/unload" style="text;fillColor=#dae8fc;align=left;verticalAlign=top;spacingLeft=4;spacingRight=4;overflow=hidden;rotatable=0;points=[[0,0.5],[1,0.5]];portConstraint=eastwest;strokeColor=#000000;" parent="Cb_uPX-rAHGO11qX08dp-27" vertex="1">
          <mxGeometry y="78" width="200" height="26" as="geometry" />
        </mxCell>
        <mxCell id="Cb_uPX-rAHGO11qX08dp-31" value="Generated events:" style="text;fillColor=#FFD1A3;align=left;verticalAlign=top;spacingLeft=4;spacingRight=4;overflow=hidden;rotatable=0;points=[[0,0.5],[1,0.5]];portConstraint=eastwest;strokeColor=#000000;fontStyle=1" parent="Cb_uPX-rAHGO11qX08dp-27" vertex="1">
          <mxGeometry y="104" width="200" height="26" as="geometry" />
        </mxCell>
        <mxCell id="Cb_uPX-rAHGO11qX08dp-32" value="+ car is loaded" style="text;strokeColor=#000000;fillColor=#fff2cc;align=left;verticalAlign=top;spacingLeft=4;spacingRight=4;overflow=hidden;rotatable=0;points=[[0,0.5],[1,0.5]];portConstraint=eastwest;" parent="Cb_uPX-rAHGO11qX08dp-27" vertex="1">
          <mxGeometry y="130" width="200" height="26" as="geometry" />
        </mxCell>
        <mxCell id="Cb_uPX-rAHGO11qX08dp-33" value="+ ship ready to departure&#xa;   from dock x" style="text;fillColor=#fff2cc;align=left;verticalAlign=top;spacingLeft=4;spacingRight=4;overflow=hidden;rotatable=0;points=[[0,0.5],[1,0.5]];portConstraint=eastwest;strokeColor=#000000;" parent="Cb_uPX-rAHGO11qX08dp-27" vertex="1">
          <mxGeometry y="156" width="200" height="52" as="geometry" />
        </mxCell>
        <mxCell id="Cb_uPX-rAHGO11qX08dp-34" value="Car Controller" style="swimlane;fontStyle=1;childLayout=stackLayout;horizontal=1;startSize=26;fillColor=none;horizontalStack=0;resizeParent=1;resizeParentMax=0;resizeLast=0;collapsible=1;marginBottom=0;fontSize=14;" parent="1" vertex="1">
          <mxGeometry x="759.9100000000001" y="300" width="280" height="182" as="geometry" />
        </mxCell>
        <mxCell id="Cb_uPX-rAHGO11qX08dp-35" value="Received events:" style="text;strokeColor=#000000;fillColor=#A9CAFC;align=left;verticalAlign=top;spacingLeft=4;spacingRight=4;overflow=hidden;rotatable=0;points=[[0,0.5],[1,0.5]];portConstraint=eastwest;fontStyle=1" parent="Cb_uPX-rAHGO11qX08dp-34" vertex="1">
          <mxGeometry y="26" width="280" height="26" as="geometry" />
        </mxCell>
        <mxCell id="Cb_uPX-rAHGO11qX08dp-36" value="+ car is loaded by crane" style="text;fillColor=#dae8fc;align=left;verticalAlign=top;spacingLeft=4;spacingRight=4;overflow=hidden;rotatable=0;points=[[0,0.5],[1,0.5]];portConstraint=eastwest;strokeColor=#000000;" parent="Cb_uPX-rAHGO11qX08dp-34" vertex="1">
          <mxGeometry y="52" width="280" height="26" as="geometry" />
        </mxCell>
        <mxCell id="Cb_uPX-rAHGO11qX08dp-37" value="+ car is unloaded by warehouse" style="text;fillColor=#dae8fc;align=left;verticalAlign=top;spacingLeft=4;spacingRight=4;overflow=hidden;rotatable=0;points=[[0,0.5],[1,0.5]];portConstraint=eastwest;strokeColor=#000000;" parent="Cb_uPX-rAHGO11qX08dp-34" vertex="1">
          <mxGeometry y="78" width="280" height="26" as="geometry" />
        </mxCell>
        <mxCell id="Cb_uPX-rAHGO11qX08dp-38" value="Generated events:" style="text;fillColor=#FFD1A3;align=left;verticalAlign=top;spacingLeft=4;spacingRight=4;overflow=hidden;rotatable=0;points=[[0,0.5],[1,0.5]];portConstraint=eastwest;strokeColor=#000000;fontStyle=1" parent="Cb_uPX-rAHGO11qX08dp-34" vertex="1">
          <mxGeometry y="104" width="280" height="26" as="geometry" />
        </mxCell>
        <mxCell id="Cb_uPX-rAHGO11qX08dp-39" value="+ car is ready to be loaded by crane" style="text;fillColor=#fff2cc;align=left;verticalAlign=top;spacingLeft=4;spacingRight=4;overflow=hidden;rotatable=0;points=[[0,0.5],[1,0.5]];portConstraint=eastwest;strokeColor=#000000;" parent="Cb_uPX-rAHGO11qX08dp-34" vertex="1">
          <mxGeometry y="130" width="280" height="26" as="geometry" />
        </mxCell>
        <mxCell id="Cb_uPX-rAHGO11qX08dp-40" value="+ car is ready to be unloaded by warehouse" style="text;strokeColor=#000000;fillColor=#fff2cc;align=left;verticalAlign=top;spacingLeft=4;spacingRight=4;overflow=hidden;rotatable=0;points=[[0,0.5],[1,0.5]];portConstraint=eastwest;" parent="Cb_uPX-rAHGO11qX08dp-34" vertex="1">
          <mxGeometry y="156" width="280" height="26" as="geometry" />
        </mxCell>
        <mxCell id="Cb_uPX-rAHGO11qX08dp-41" value="Warehouse Controller" style="swimlane;fontStyle=1;childLayout=stackLayout;horizontal=1;startSize=26;horizontalStack=0;resizeParent=1;resizeParentMax=0;resizeLast=0;collapsible=1;marginBottom=0;fontSize=14;" parent="1" vertex="1">
          <mxGeometry x="1129.91" y="300" width="200" height="156" as="geometry" />
        </mxCell>
        <mxCell id="Cb_uPX-rAHGO11qX08dp-42" value="Received events:" style="text;fillColor=#A9CAFC;align=left;verticalAlign=top;spacingLeft=4;spacingRight=4;overflow=hidden;rotatable=0;points=[[0,0.5],[1,0.5]];portConstraint=eastwest;strokeColor=#000000;fontStyle=1" parent="Cb_uPX-rAHGO11qX08dp-41" vertex="1">
          <mxGeometry y="26" width="200" height="26" as="geometry" />
        </mxCell>
        <mxCell id="Cb_uPX-rAHGO11qX08dp-43" value="+ car ready to be unloaded" style="text;fillColor=#dae8fc;align=left;verticalAlign=top;spacingLeft=4;spacingRight=4;overflow=hidden;rotatable=0;points=[[0,0.5],[1,0.5]];portConstraint=eastwest;strokeColor=#000000;" parent="Cb_uPX-rAHGO11qX08dp-41" vertex="1">
          <mxGeometry y="52" width="200" height="26" as="geometry" />
        </mxCell>
        <mxCell id="Cb_uPX-rAHGO11qX08dp-44" value="Generated events:" style="text;fillColor=#FFD1A3;align=left;verticalAlign=top;spacingLeft=4;spacingRight=4;overflow=hidden;rotatable=0;points=[[0,0.5],[1,0.5]];portConstraint=eastwest;strokeColor=#000000;fontStyle=1" parent="Cb_uPX-rAHGO11qX08dp-41" vertex="1">
          <mxGeometry y="78" width="200" height="26" as="geometry" />
        </mxCell>
        <mxCell id="Cb_uPX-rAHGO11qX08dp-45" value="+ contrainer placed on train" style="text;fillColor=#fff2cc;align=left;verticalAlign=top;spacingLeft=4;spacingRight=4;overflow=hidden;rotatable=0;points=[[0,0.5],[1,0.5]];portConstraint=eastwest;strokeColor=#000000;" parent="Cb_uPX-rAHGO11qX08dp-41" vertex="1">
          <mxGeometry y="104" width="200" height="26" as="geometry" />
        </mxCell>
        <mxCell id="Cb_uPX-rAHGO11qX08dp-46" value="+ car unloaded by warehouse" style="text;fillColor=#fff2cc;align=left;verticalAlign=top;spacingLeft=4;spacingRight=4;overflow=hidden;rotatable=0;points=[[0,0.5],[1,0.5]];portConstraint=eastwest;strokeColor=#000000;" parent="Cb_uPX-rAHGO11qX08dp-41" vertex="1">
          <mxGeometry y="130" width="200" height="26" as="geometry" />
        </mxCell>
        <mxCell id="Cb_uPX-rAHGO11qX08dp-47" value="Ship source" style="swimlane;fontStyle=0;childLayout=stackLayout;horizontal=1;startSize=26;horizontalStack=0;resizeParent=1;resizeParentMax=0;resizeLast=0;collapsible=1;marginBottom=0;align=center;fontSize=14;strokeColor=#000000;fillColor=#d5e8d4;" parent="1" vertex="1">
          <mxGeometry x="479.9100000000001" y="90" width="160" height="78" as="geometry" />
        </mxCell>
        <mxCell id="Cb_uPX-rAHGO11qX08dp-48" value="Generated events:" style="text;fillColor=#FFD1A3;spacingLeft=4;spacingRight=4;overflow=hidden;rotatable=0;points=[[0,0.5],[1,0.5]];portConstraint=eastwest;fontSize=12;strokeColor=#000000;fontStyle=1" parent="Cb_uPX-rAHGO11qX08dp-47" vertex="1">
          <mxGeometry y="26" width="160" height="26" as="geometry" />
        </mxCell>
        <mxCell id="Cb_uPX-rAHGO11qX08dp-49" value="+ ship came to port" style="text;fillColor=#fff2cc;spacingLeft=4;spacingRight=4;overflow=hidden;rotatable=0;points=[[0,0.5],[1,0.5]];portConstraint=eastwest;fontSize=12;strokeColor=#000000;" parent="Cb_uPX-rAHGO11qX08dp-47" vertex="1">
          <mxGeometry y="52" width="160" height="26" as="geometry" />
        </mxCell>
        <mxCell id="Cb_uPX-rAHGO11qX08dp-50" value="Container Sink" style="swimlane;fontStyle=1;childLayout=stackLayout;horizontal=1;startSize=26;horizontalStack=0;resizeParent=1;resizeParentMax=0;resizeLast=0;collapsible=1;marginBottom=0;fillColor=#d5e8d4;strokeColor=#000000;fontSize=14;" parent="1" vertex="1">
          <mxGeometry x="909.9100000000001" y="90" width="180" height="78" as="geometry" />
        </mxCell>
        <mxCell id="Cb_uPX-rAHGO11qX08dp-51" value="Received events:" style="text;fillColor=#A9CAFC;align=left;verticalAlign=top;spacingLeft=4;spacingRight=4;overflow=hidden;rotatable=0;points=[[0,0.5],[1,0.5]];portConstraint=eastwest;strokeColor=#000000;fontStyle=1" parent="Cb_uPX-rAHGO11qX08dp-50" vertex="1">
          <mxGeometry y="26" width="180" height="26" as="geometry" />
        </mxCell>
        <mxCell id="Cb_uPX-rAHGO11qX08dp-52" value="+ container send away by train" style="text;fillColor=#dae8fc;align=left;verticalAlign=top;spacingLeft=4;spacingRight=4;overflow=hidden;rotatable=0;points=[[0,0.5],[1,0.5]];portConstraint=eastwest;strokeColor=#000000;" parent="Cb_uPX-rAHGO11qX08dp-50" vertex="1">
          <mxGeometry y="52" width="180" height="26" as="geometry" />
        </mxCell>
        <mxCell id="Cb_uPX-rAHGO11qX08dp-53" value="" style="edgeStyle=segmentEdgeStyle;endArrow=classic;html=1;rounded=0;entryX=0;entryY=0.5;entryDx=0;entryDy=0;exitX=1;exitY=0.5;exitDx=0;exitDy=0;" parent="1" source="Cb_uPX-rAHGO11qX08dp-33" target="Cb_uPX-rAHGO11qX08dp-24" edge="1">
          <mxGeometry width="50" height="50" relative="1" as="geometry">
            <mxPoint x="579.9100000000001" y="520" as="sourcePoint" />
            <mxPoint x="689.9100000000001" y="470" as="targetPoint" />
            <Array as="points">
              <mxPoint x="689.9100000000001" y="482" />
              <mxPoint x="689.9100000000001" y="540" />
              <mxPoint x="199.91000000000008" y="540" />
              <mxPoint x="199.91000000000008" y="404" />
            </Array>
          </mxGeometry>
        </mxCell>
        <mxCell id="Cb_uPX-rAHGO11qX08dp-54" value="" style="edgeStyle=segmentEdgeStyle;endArrow=classic;html=1;rounded=0;entryX=0;entryY=0.5;entryDx=0;entryDy=0;exitX=1;exitY=0.5;exitDx=0;exitDy=0;" parent="1" source="Cb_uPX-rAHGO11qX08dp-26" target="Cb_uPX-rAHGO11qX08dp-30" edge="1">
          <mxGeometry width="50" height="50" relative="1" as="geometry">
            <mxPoint x="279.9100000000001" y="590" as="sourcePoint" />
            <mxPoint x="329.9100000000001" y="540" as="targetPoint" />
            <Array as="points">
              <mxPoint x="429.9100000000001" y="482" />
              <mxPoint x="429.9100000000001" y="391" />
            </Array>
          </mxGeometry>
        </mxCell>
        <mxCell id="Cb_uPX-rAHGO11qX08dp-55" value="" style="edgeStyle=segmentEdgeStyle;endArrow=classic;html=1;rounded=0;entryX=0;entryY=0.5;entryDx=0;entryDy=0;exitX=1;exitY=0.5;exitDx=0;exitDy=0;" parent="1" source="Cb_uPX-rAHGO11qX08dp-32" target="Cb_uPX-rAHGO11qX08dp-36" edge="1">
          <mxGeometry width="50" height="50" relative="1" as="geometry">
            <mxPoint x="699.9100000000001" y="672" as="sourcePoint" />
            <mxPoint x="579.9100000000001" y="620" as="targetPoint" />
            <Array as="points">
              <mxPoint x="709.9100000000001" y="443" />
              <mxPoint x="709.9100000000001" y="365" />
            </Array>
          </mxGeometry>
        </mxCell>
        <mxCell id="Cb_uPX-rAHGO11qX08dp-56" value="" style="edgeStyle=segmentEdgeStyle;endArrow=classic;html=1;rounded=0;entryX=0;entryY=0.5;entryDx=0;entryDy=0;exitX=1;exitY=0.5;exitDx=0;exitDy=0;" parent="1" source="Cb_uPX-rAHGO11qX08dp-46" target="Cb_uPX-rAHGO11qX08dp-37" edge="1">
          <mxGeometry width="50" height="50" relative="1" as="geometry">
            <mxPoint x="1329.91" y="572" as="sourcePoint" />
            <mxPoint x="1209.91" y="520" as="targetPoint" />
            <Array as="points">
              <mxPoint x="1359.91" y="443" />
              <mxPoint x="1359.91" y="540" />
              <mxPoint x="729.9100000000001" y="540" />
              <mxPoint x="729.9100000000001" y="391" />
            </Array>
          </mxGeometry>
        </mxCell>
        <mxCell id="Cb_uPX-rAHGO11qX08dp-57" value="" style="edgeStyle=segmentEdgeStyle;endArrow=classic;html=1;rounded=0;entryX=0;entryY=0.5;entryDx=0;entryDy=0;exitX=1;exitY=0.5;exitDx=0;exitDy=0;" parent="1" source="Cb_uPX-rAHGO11qX08dp-39" target="Cb_uPX-rAHGO11qX08dp-29" edge="1">
          <mxGeometry width="50" height="50" relative="1" as="geometry">
            <mxPoint x="979.9100000000001" y="242" as="sourcePoint" />
            <mxPoint x="859.9100000000001" y="190" as="targetPoint" />
            <Array as="points">
              <mxPoint x="1069.91" y="443" />
              <mxPoint x="1069.91" y="270" />
              <mxPoint x="429.9100000000001" y="270" />
              <mxPoint x="429.9100000000001" y="365" />
            </Array>
          </mxGeometry>
        </mxCell>
        <mxCell id="Cb_uPX-rAHGO11qX08dp-58" value="" style="edgeStyle=segmentEdgeStyle;endArrow=classic;html=1;rounded=0;entryX=0;entryY=0.5;entryDx=0;entryDy=0;exitX=1;exitY=0.5;exitDx=0;exitDy=0;" parent="1" source="Cb_uPX-rAHGO11qX08dp-40" target="Cb_uPX-rAHGO11qX08dp-43" edge="1">
          <mxGeometry width="50" height="50" relative="1" as="geometry">
            <mxPoint x="1099.91" y="652" as="sourcePoint" />
            <mxPoint x="979.9100000000001" y="600" as="targetPoint" />
            <Array as="points">
              <mxPoint x="1099.91" y="469" />
              <mxPoint x="1099.91" y="365" />
            </Array>
          </mxGeometry>
        </mxCell>
        <mxCell id="Cb_uPX-rAHGO11qX08dp-59" value="" style="edgeStyle=segmentEdgeStyle;endArrow=classic;html=1;rounded=0;entryX=0;entryY=0.5;entryDx=0;entryDy=0;exitX=0;exitY=0.5;exitDx=0;exitDy=0;" parent="1" source="Cb_uPX-rAHGO11qX08dp-49" target="Cb_uPX-rAHGO11qX08dp-23" edge="1">
          <mxGeometry width="50" height="50" relative="1" as="geometry">
            <mxPoint x="409.9100000000001" y="212" as="sourcePoint" />
            <mxPoint x="289.9100000000001" y="160" as="targetPoint" />
            <Array as="points">
              <mxPoint x="199.91000000000008" y="155" />
              <mxPoint x="199.91000000000008" y="365" />
            </Array>
          </mxGeometry>
        </mxCell>
        <mxCell id="Cb_uPX-rAHGO11qX08dp-60" value="" style="edgeStyle=segmentEdgeStyle;endArrow=classic;html=1;rounded=0;entryX=1;entryY=0.5;entryDx=0;entryDy=0;exitX=1;exitY=0.5;exitDx=0;exitDy=0;" parent="1" source="Cb_uPX-rAHGO11qX08dp-45" target="Cb_uPX-rAHGO11qX08dp-52" edge="1">
          <mxGeometry width="50" height="50" relative="1" as="geometry">
            <mxPoint x="1359.91" y="420" as="sourcePoint" />
            <mxPoint x="1149.91" y="170" as="targetPoint" />
            <Array as="points">
              <mxPoint x="1359.91" y="417" />
              <mxPoint x="1359.91" y="155" />
            </Array>
          </mxGeometry>
        </mxCell>
        <mxCell id="Cb_uPX-rAHGO11qX08dp-61" value="Environment" style="text;strokeColor=none;fillColor=none;html=1;fontSize=24;fontStyle=1;verticalAlign=middle;align=center;rounded=0;glass=0;" parent="1" vertex="1">
          <mxGeometry x="719.9100000000001" y="109" width="100" height="40" as="geometry" />
        </mxCell>
        <mxCell id="Cb_uPX-rAHGO11qX08dp-62" value="Controller" style="text;strokeColor=none;fillColor=none;html=1;fontSize=24;fontStyle=1;verticalAlign=middle;align=center;rounded=0;glass=0;" parent="1" vertex="1">
          <mxGeometry x="719.9100000000001" y="220" width="100" height="40" as="geometry" />
        </mxCell>
      </root>
    </mxGraphModel>
  </diagram>
</mxfile>
